{"title":"Avatar.2009.BDRIP.H264-ZEKTORM","uid":5513500,"size":2629220812,"categoryP":"video","categoryS":"movies","magnet":"?xt=urn:btih:8de10587463a87f17b05b26efb4345274052f54e&amp;dn=Avatar.2009.BDRIP.H264-ZEKTORM&amp;tr=udp%3A%2F%2Ftracker.openbittorrent.com%3A80&amp;tr=udp%3A%2F%2Fopen.demonii.com%3A1337&amp;tr=udp%3A%2F%2Ftracker.coppersurfer.tk%3A6969&amp;tr=udp%3A%2F%2Fexodus.desync.com%3A6969","seeders":0,"leechers":0,"uploader":"blowley","files":8,"time":1272159930,"description":"Title                            : Avatar\nYear                             : 2009\nGenre                            : Action | Adventure | Fantasy | Sci-Fi\niMDB URL                         : http://www.imdb.com/title/tt0499549/\nAwards                           : Won 3 Oscars. Another 28 wins &amp; 53 nominations\n\nComplete name                    : Avatar.2009.BDRIP.H264-ZEKTORM.mp4\nFormat                           : MPEG-4\nFormat profile                   : Base Media\nCodec ID                         : isom\nFile size                        : 2.44 GiB\nDuration                         : 2h 41mn\nOverall bit rate                 : 2161 Kbps\nSubtitles                        : English, Spanish (Format: VobSub) / English (Format: srt)\n\nVideo\nID                               : 1\nFormat                           : AVC\nFormat/Info                      : Advanced Video Codec\nFormat profile                   : &lt;a class=&quot;__cf_email__&quot; href=&quot;/cdn-cgi/l/email-protection&quot; data-cfemail=&quot;ce86a7a9a68e82fde0fe&quot;&gt;[email&amp;#160;protected]&lt;/a&gt;&lt;script cf-hash='f9e31' type=&quot;text/javascript&quot;&gt;\n/* &lt;![CDATA[ */!function(){try{var t=&quot;currentScript&quot;in document?document.currentScript:function(){for(var t=document.getElementsByTagName(&quot;script&quot;),e=t.length;e--;)if(t[e].getAttribute(&quot;cf-hash&quot;))return t[e]}();if(t&amp;&amp;t.previousSibling){var e,r,n,i,c=t.previousSibling,a=c.getAttribute(&quot;data-cfemail&quot;);if(a){for(e=&quot;&quot;,r=parseInt(a.substr(0,2),16),n=2;a.length-n;n+=2)i=parseInt(a.substr(n,2),16)^r,e+=String.fromCharCode(i);e=document.createTextNode(e),c.parentNode.replaceChild(e,c)}}}catch(u){}}();/* ]]&gt; */&lt;/script&gt;\nFormat settings, CABAC           : Yes\nCodec ID                         : avc1\nCodec ID/Info                    : Advanced Video Coding\nDuration                         : 2h 41mn\nBit rate mode                    : Variable\nBit rate                         : 1841 Kbps\nWidth                            : 1280 pixels\nHeight                           : 720 pixels\nDisplay aspect ratio             : 16/9\nFrame rate mode                  : Constant\nFrame rate                       : 23.976 fps\nResolution                       : 24 bits\nColorimetry                      : 4:2:0\nScan type                        : Progressive\nBits/(Pixel*Frame)               : 0.083\nStream size                      : 2.08 GiB (85%)\nTitle                            : Video\nWriting library                  : x264\n\nAudio #1\nID                               : 2\nFormat                           : AAC\nFormat/Info                      : Advanced Audio Codec\nFormat version                   : Version 4\nFormat profile                   : LC\nFormat settings, SBR             : Yes\nFormat settings, PS              : No\nCodec ID                         : 40\nDuration                         : 2h 41mn\nBit rate mode                    : Variable\nBit rate                         : 230 Kbps\nMaximum bit rate                 : 271 Kbps\nChannel(s)                       : 6 channels\nChannel positions                : Front: L C R, Rear: L R, LFE\nSampling rate                    : 48.0 KHz\nResolution                       : 16 bits\nStream size                      : 266 MiB (11%)\nTitle                            : English\nLanguage                         : English\n\nAudio #2\nID                               : 3\nFormat                           : AAC\nFormat/Info                      : Advanced Audio Codec\nFormat version                   : Version 4\nFormat profile                   : LC\nFormat settings, SBR             : Yes\nFormat settings, PS              : No\nCodec ID                         : 40\nDuration                         : 2h 41mn\nBit rate mode                    : Variable\nBit rate                         : 86.6 Kbps\nMaximum bit rate                 : 115 Kbps\nChannel(s)                       : 2 channels\nChannel positions                : L R\nSampling rate                    : 48.0 KHz\nResolution                       : 16 bits\nStream size                      : 100 MiB (4%)\nTitle                            : English\nLanguage                         : English\n","torrent":{"xt":"urn:btih:8de10587463a87f17b05b26efb4345274052f54e","amp;dn":"Avatar.2009.BDRIP.H264-ZEKTORM","amp;tr":["udp%3A%2F%2Ftracker.openbittorrent.com%3A80","udp%3A%2F%2Fopen.demonii.com%3A1337","udp%3A%2F%2Ftracker.coppersurfer.tk%3A6969","udp%3A%2F%2Fexodus.desync.com%3A6969"],"infoHash":"8de10587463a87f17b05b26efb4345274052f54e","infoHashBuffer":{"type":"Buffer","data":[141,225,5,135,70,58,135,241,123,5,178,110,251,67,69,39,64,82,245,78]},"announce":[],"urlList":[]}}